<svg id="visual" viewBox="0 0 900 600" width="900" height="600" xmlns="http://www.w3.org/2000/svg" xmlns:xlink="http://www.w3.org/1999/xlink" version="1.1"><rect x="0" y="0" width="900" height="600" fill="#01785e"></rect><g transform="translate(445.7571850861978 303.1187386282349)"><path d="M130 -223.7C166.4 -204.2 192.3 -165.1 218.9 -124.6C245.5 -84 272.7 -42 274.8 1.2C276.8 44.3 253.6 88.7 223.9 123.9C194.2 159.1 158.1 185.2 119.7 201.2C81.3 217.2 40.7 223.1 -3.2 228.6C-47 234.1 -94 239.1 -132.1 223C-170.2 206.8 -199.4 169.4 -223.3 128.7C-247.1 88 -265.5 44 -266.4 -0.5C-267.3 -45 -250.6 -90 -222 -122.5C-193.4 -155 -152.9 -174.9 -114 -192.9C-75 -210.9 -37.5 -227 4.7 -235C46.8 -243.1 93.7 -243.2 130 -223.7" fill="#282828"></path></g></svg>